<svg width="16" height="15" viewBox="0 0 16 15" fill="none" xmlns="http://www.w3.org/2000/svg">
<path d="M11.3747 2.75209C12.2951 2.75209 13.0413 2.14535 13.0413 1.39689C13.0413 0.648432 12.2951 0.041687 11.3747 0.041687C10.4542 0.041687 9.70801 0.648432 9.70801 1.39689C9.70801 2.14535 10.4542 2.75209 11.3747 2.75209Z" fill="#5D4395"/>
<path d="M15.4162 3.26025C14.9995 3.09085 14.4995 3.20943 14.2912 3.54823L13.562 4.66627L10.3537 3.02309C10.2287 2.95533 10.0828 2.92145 9.91618 2.92145H6.37451C6.06201 2.92145 5.79118 3.05697 5.64534 3.27719L4.29118 5.30999C4.06201 5.63185 4.22868 6.05535 4.62451 6.22475C4.74951 6.27557 4.89534 6.30945 5.02034 6.30945C5.31201 6.30945 5.60368 6.17393 5.74951 5.95371L6.87451 4.27665H8.10368L4.41618 9.86686H0.957845C0.499512 9.86686 0.124512 10.1718 0.124512 10.5445C0.124512 10.9171 0.499512 11.2221 0.957845 11.2221H4.91618C5.22868 11.2221 5.49951 11.0865 5.64534 10.8663L7.10368 8.68106L9.49951 10.4936L9.31201 13.8986C9.27034 14.2713 9.62451 14.5931 10.0828 14.6101C10.1037 14.6101 10.1037 14.6101 10.1245 14.6101C10.562 14.6101 10.937 14.3221 10.9578 13.9663L11.1662 10.2395C11.187 10.0363 11.0828 9.84992 10.8953 9.7144L8.87451 8.1898L10.9995 4.97119L13.4162 6.20781C13.6037 6.30945 13.8537 6.34333 14.0828 6.29251C14.312 6.24169 14.4995 6.12311 14.6037 5.95371L15.7495 4.17501C15.9787 3.85315 15.8328 3.44659 15.4162 3.26025Z" fill="#5D4395"/>
</svg>
