<svg width="22" height="24" viewBox="0 0 22 24" fill="none" xmlns="http://www.w3.org/2000/svg">
<path d="M7.60951 8.0745C9.63212 8.0745 11.2718 6.43485 11.2718 4.41225C11.2718 2.38965 9.63212 0.75 7.60951 0.75C5.58691 0.75 3.94727 2.38965 3.94727 4.41225C3.94727 6.43485 5.58691 8.0745 7.60951 8.0745Z" fill="white"/>
<path d="M7.60951 1.5C9.21526 1.5 10.5218 2.8065 10.5218 4.41225C10.5218 6.018 9.21526 7.3245 7.60951 7.3245C6.00376 7.3245 4.69727 6.018 4.69727 4.41225C4.69727 2.8065 6.00376 1.5 7.60951 1.5ZM7.60951 0C5.17277 0 3.19727 1.9755 3.19727 4.41225C3.19727 6.849 5.17277 8.8245 7.60951 8.8245C10.0463 8.8245 12.0218 6.849 12.0218 4.41225C12.0218 1.9755 10.047 0 7.60951 0Z" fill="#5D5FEF"/>
<path d="M1.4248 16.6395C1.82605 13.209 4.4698 10.5322 7.61005 10.5322C10.7511 10.5322 13.3948 13.2082 13.7953 16.6395H1.4248Z" fill="white"/>
<path d="M7.60978 11.2822C10.1118 11.2822 12.256 13.2435 12.9003 15.8895H2.32003C2.96428 13.2435 5.10778 11.2822 7.60978 11.2822ZM7.60978 9.78223C3.79528 9.78223 0.699285 13.1745 0.623535 17.3895H14.5968C14.5203 13.1745 11.425 9.78223 7.60978 9.78223Z" fill="#5D5FEF"/>
<path d="M9.0982 19.3995L16.7827 11.715L20.5334 15.4657L12.8497 23.1502L9.0127 23.2335L9.0982 19.3995Z" fill="white"/>
<path d="M16.7829 12.7755L19.4731 15.4657L12.5326 22.4062L9.78011 22.4662L9.84161 19.7167L16.7829 12.7755ZM16.7829 10.8735C16.6479 10.8735 16.5129 10.9245 16.4101 11.0272L8.35511 19.0822L8.24561 24L13.1671 23.8935L21.2221 15.8385C21.4269 15.6337 21.4269 15.2985 21.2221 15.0937L17.1556 11.0272C17.0529 10.9245 16.9179 10.8735 16.7829 10.8735Z" fill="#5D5FEF"/>
</svg>
