<svg width="21" height="20" viewBox="0 0 21 20" fill="none" xmlns="http://www.w3.org/2000/svg">
<path d="M8.19446 2.58646C9.09808 0.471179 12.119 0.47118 13.0226 2.58646L13.652 4.05983C14.0221 4.9261 14.8345 5.52663 15.7769 5.63041L17.5332 5.82385C19.7514 6.06813 20.6675 8.7755 19.0475 10.2988L17.5563 11.7012C16.9006 12.3177 16.6109 13.2258 16.7895 14.1045L17.1495 15.8758C17.6053 18.118 15.1337 19.8109 13.1829 18.5927L12.005 17.8572C11.1515 17.3242 10.0656 17.3242 9.2121 17.8572L8.0342 18.5927C6.08339 19.8109 3.61175 18.118 4.06751 15.8758L4.42756 14.1045C4.60617 13.2258 4.31646 12.3177 3.66079 11.7012L2.16952 10.2988C0.549555 8.7755 1.4657 6.06813 3.68381 5.82385L5.4402 5.63041C6.38253 5.52663 7.195 4.9261 7.56506 4.05983L8.19446 2.58646Z" stroke="#302F3C" stroke-width="1.5" stroke-linecap="round" stroke-linejoin="round"/>
</svg>
