<svg width="15" height="15" viewBox="0 0 15 15" fill="none" xmlns="http://www.w3.org/2000/svg">
<g clip-path="url(#clip0_67_478)">
<path d="M5.56804 7.3018C5.7813 7.61041 5.71755 7.35325 5.71755 13.5047C5.71755 14.0551 6.34558 14.3702 6.78821 14.0409C8.67966 12.6148 9.05756 12.4913 9.05756 11.8243C9.05756 7.34167 9.00531 7.59376 9.20707 7.3018L12.2785 3.12097H2.49658L5.56804 7.3018Z" fill="#5D4395"/>
<path d="M13.4387 0.943679C13.329 0.733469 13.1138 0.602783 12.8768 0.602783H1.89825C1.38651 0.602783 1.0854 1.18005 1.37896 1.59949C1.38137 1.60352 1.34564 1.55461 1.9123 2.32582H12.8627C13.3456 1.6686 13.6684 1.38464 13.4387 0.943679Z" fill="#5D4395"/>
</g>
<defs>
<clipPath id="clip0_67_478">
<rect width="13.5722" height="13.5722" fill="white" transform="translate(0.603027 0.602783)"/>
</clipPath>
</defs>
</svg>
