<svg width="14" height="15" viewBox="0 0 14 15" fill="none" xmlns="http://www.w3.org/2000/svg">
<path fill-rule="evenodd" clip-rule="evenodd" d="M1.74902 5.16534H2.49902V9.01515H11.499V5.16534H12.249V9.01515H13.1865C13.2363 9.01515 13.2839 9.03543 13.3191 9.07153C13.3543 9.10763 13.374 9.15659 13.374 9.20764V9.59263C13.374 9.64368 13.3543 9.69264 13.3191 9.72874C13.2839 9.76484 13.2363 9.78512 13.1865 9.78512H0.811523C0.761795 9.78512 0.714104 9.76484 0.678941 9.72874C0.643778 9.69264 0.624023 9.64368 0.624023 9.59263V9.20764C0.624023 9.15659 0.643778 9.10763 0.678941 9.07153C0.714104 9.03543 0.761795 9.01515 0.811523 9.01515H1.74902V5.16534ZM1.74902 11.325V13.6349H12.249V11.325H1.74902ZM1.37402 10.5551C1.27457 10.5551 1.17918 10.5956 1.10886 10.6678C1.03853 10.74 0.999023 10.838 0.999023 10.9401V14.0199C0.999023 14.122 1.03853 14.2199 1.10886 14.2921C1.17918 14.3643 1.27457 14.4049 1.37402 14.4049H12.624C12.7235 14.4049 12.8189 14.3643 12.8892 14.2921C12.9595 14.2199 12.999 14.122 12.999 14.0199V10.9401C12.999 10.838 12.9595 10.74 12.8892 10.6678C12.8189 10.5956 12.7235 10.5551 12.624 10.5551H1.37402Z" fill="#5D4395"/>
<path fill-rule="evenodd" clip-rule="evenodd" d="M1.82088 1.31556L1.0165 3.59195C1.00567 3.62242 1.00009 3.6546 1 3.68704V4.60714C1 4.91859 1.24263 5.16537 1.53588 5.16537C1.82838 5.16537 2.07138 4.91898 2.07138 4.60753C2.07138 4.50542 2.11088 4.4075 2.18121 4.3353C2.25154 4.26311 2.34692 4.22255 2.44638 4.22255C2.54583 4.22255 2.64121 4.26311 2.71154 4.3353C2.78187 4.4075 2.82138 4.50542 2.82138 4.60753C2.82138 4.91859 3.06438 5.16537 3.35725 5.16537C3.64975 5.16537 3.89275 4.91898 3.89275 4.60753C3.89275 4.50542 3.93226 4.4075 4.00259 4.3353C4.07291 4.26311 4.16829 4.22255 4.26775 4.22255C4.36721 4.22255 4.46259 4.26311 4.53292 4.3353C4.60324 4.4075 4.64275 4.50542 4.64275 4.60753C4.64275 4.91859 4.88575 5.16537 5.17863 5.16537C5.47113 5.16537 5.71413 4.91898 5.71413 4.60791C5.71413 4.50581 5.75363 4.40789 5.82396 4.33569C5.89429 4.26349 5.98967 4.22293 6.08913 4.22293C6.18858 4.22293 6.28396 4.26349 6.35429 4.33569C6.42462 4.40789 6.46413 4.50581 6.46413 4.60791C6.4645 4.91898 6.7075 5.16537 7 5.16537C7.2925 5.16537 7.53588 4.91898 7.53588 4.60753C7.53588 4.50542 7.57538 4.4075 7.64571 4.3353C7.71604 4.26311 7.81142 4.22255 7.91088 4.22255C8.01033 4.22255 8.10571 4.26311 8.17604 4.3353C8.24637 4.4075 8.28588 4.50542 8.28588 4.60753C8.28588 4.91859 8.5285 5.16537 8.82138 5.16537C9.11388 5.16537 9.35688 4.91898 9.35725 4.60791C9.35725 4.50581 9.39676 4.40789 9.46709 4.33569C9.53741 4.26349 9.63279 4.22293 9.73225 4.22293C9.83171 4.22293 9.92709 4.26349 9.99742 4.33569C10.0677 4.40789 10.1073 4.50581 10.1073 4.60791C10.1073 4.91898 10.3503 5.16537 10.6428 5.16537C10.9356 5.16537 11.1786 4.91898 11.1786 4.60753C11.1786 4.50542 11.2181 4.4075 11.2885 4.3353C11.3588 4.26311 11.4542 4.22255 11.5536 4.22255C11.6531 4.22255 11.7485 4.26311 11.8188 4.3353C11.8891 4.4075 11.9286 4.50542 11.9286 4.60753C11.9286 4.91859 12.1713 5.16537 12.4641 5.16537C12.7574 5.16537 13 4.91898 13 4.60753V3.68742C12.9999 3.65486 12.9944 3.62255 12.9835 3.59195L12.1791 1.31556H1.82125H1.82088ZM12.166 1.2786L12.2193 1.25858L12.166 1.2786ZM11.5536 5.54496C11.4346 5.66882 11.2928 5.76713 11.1364 5.83415C10.98 5.90118 10.8122 5.93557 10.6428 5.93533C10.4733 5.93554 10.3056 5.90113 10.1493 5.83411C9.99295 5.76709 9.85119 5.66879 9.73225 5.54496C9.61327 5.66884 9.47144 5.76716 9.31505 5.83418C9.15867 5.90121 8.99084 5.93559 8.82138 5.93533C8.65197 5.93554 8.48422 5.90113 8.3279 5.83411C8.17158 5.76709 8.02982 5.66879 7.91088 5.54496C7.79189 5.66884 7.65007 5.76716 7.49368 5.83418C7.33729 5.90121 7.16947 5.93559 7 5.93533C6.83053 5.93559 6.66271 5.90121 6.50632 5.83418C6.34993 5.76716 6.20811 5.66884 6.08913 5.54496C5.97018 5.66879 5.82842 5.76709 5.6721 5.83411C5.51578 5.90113 5.34803 5.93554 5.17863 5.93533C4.822 5.93533 4.49988 5.78557 4.26775 5.54496C4.14881 5.66879 4.00705 5.76709 3.85073 5.83411C3.69441 5.90113 3.52665 5.93554 3.35725 5.93533C3.18779 5.93557 3.01997 5.90118 2.86358 5.83415C2.7072 5.76713 2.56537 5.66882 2.44638 5.54496C2.32748 5.66875 2.18578 5.76701 2.02952 5.83403C1.87327 5.90105 1.70559 5.93549 1.53625 5.93533C0.822625 5.93533 0.25 5.33784 0.25 4.60753V3.68742C0.25 3.56538 0.270625 3.44411 0.311125 3.32939L1.12863 1.01566C1.17712 0.877943 1.26579 0.758926 1.38255 0.674812C1.49931 0.590698 1.63849 0.545576 1.78113 0.545593H12.2196C12.3622 0.545763 12.5012 0.591014 12.6178 0.67519C12.7345 0.759366 12.823 0.87838 12.8714 1.01604L13.6889 3.32939C13.7298 3.44411 13.7504 3.56538 13.7504 3.68742V4.60753C13.75 5.33784 13.1774 5.93533 12.4641 5.93533C12.2947 5.93554 12.127 5.90113 11.9706 5.83411C11.8143 5.76709 11.6726 5.66879 11.5536 5.54496Z" fill="#5D4395"/>
<path d="M3.25024 8.05272C3.25024 8.00167 3.27 7.95271 3.30516 7.91661C3.34032 7.88051 3.38802 7.86023 3.43774 7.86023H4.56274C4.61247 7.86023 4.66016 7.88051 4.69533 7.91661C4.73049 7.95271 4.75025 8.00167 4.75025 8.05272V8.82268C4.75025 8.87373 4.73049 8.92269 4.69533 8.95879C4.66016 8.99489 4.61247 9.01517 4.56274 9.01517H3.43774C3.38802 9.01517 3.34032 8.99489 3.30516 8.95879C3.27 8.92269 3.25024 8.87373 3.25024 8.82268V8.05272Z" fill="#5D4395"/>
<path d="M3.99976 8.43767C3.99976 8.38662 4.01951 8.33766 4.05467 8.30156C4.08984 8.26546 4.13753 8.24518 4.18726 8.24518H5.31226C5.36198 8.24518 5.40967 8.26546 5.44484 8.30156C5.48 8.33766 5.49975 8.38662 5.49975 8.43767V8.82265C5.49975 8.8737 5.48 8.92266 5.44484 8.95876C5.40967 8.99486 5.36198 9.01514 5.31226 9.01514H4.18726C4.13753 9.01514 4.08984 8.99486 4.05467 8.95876C4.01951 8.92266 3.99976 8.8737 3.99976 8.82265V8.43767Z" fill="#5D4395"/>
<path d="M6.99976 8.4377C6.99976 8.59086 6.94049 8.73774 6.835 8.84604C6.72951 8.95433 6.58644 9.01517 6.43726 9.01517C6.28807 9.01517 6.145 8.95433 6.03951 8.84604C5.93402 8.73774 5.87476 8.59086 5.87476 8.4377C5.87476 8.28455 5.93402 8.13766 6.03951 8.02937C6.145 7.92107 6.28807 7.86023 6.43726 7.86023C6.58644 7.86023 6.72951 7.92107 6.835 8.02937C6.94049 8.13766 6.99976 8.28455 6.99976 8.4377Z" fill="#5D4395"/>
</svg>
