<svg width="22" height="20" viewBox="0 0 22 20" fill="none" xmlns="http://www.w3.org/2000/svg">
<path opacity="0.2" fill-rule="evenodd" clip-rule="evenodd" d="M6.96161 3.99999H4.87415V3H2.78668V5.99999H19.4864V3H17.3989V3.99999H15.3115V3H6.96161V3.99999ZM19.4864 7.99999H2.78668V18H19.4864V7.99999ZM15.3115 0.999998H6.96161V0H4.87415V0.999998H2.78668C1.63381 0.999998 0.699219 1.89543 0.699219 3V18C0.699219 19.1046 1.63381 20 2.78668 20H19.4864C20.6393 20 21.5739 19.1046 21.5739 18V3C21.5739 1.89543 20.6393 0.999998 19.4864 0.999998H17.3989V0H15.3115V0.999998ZM5.91788 12V9.99998H8.00534V12H5.91788ZM10.0928 12H12.1803V9.99998H10.0928V12ZM14.2677 12V9.99998H16.3552V12H14.2677ZM5.91788 14V16H8.00534V14H5.91788ZM12.1803 16H10.0928V14H12.1803V16Z" fill="#5F4495"/>
</svg>
