<svg width="28" height="30" viewBox="0 0 28 30" fill="none" xmlns="http://www.w3.org/2000/svg">
<path d="M16.1004 4.54829V3.17757H17.4407C17.7023 3.17757 17.9311 2.9595 17.9311 2.71028V0.46729C17.9311 0.218069 17.7023 0 17.4407 0H11.7198C11.4583 0 11.2294 0.218069 11.2294 0.46729V2.71028C11.2294 2.9595 11.4583 3.17757 11.7198 3.17757H13.0601V4.54829C9.88908 4.89097 7.07764 6.29284 4.95271 8.34891L4.39696 7.81932L5.31232 6.94704C5.50846 6.76013 5.50846 6.47975 5.31232 6.29284L3.41623 4.48598C3.22008 4.29907 2.92586 4.29907 2.72971 4.48598L0.14711 6.88474C-0.0490368 7.07165 -0.0490368 7.35203 0.14711 7.53894L2.0432 9.3458C2.14127 9.43925 2.27204 9.47041 2.4028 9.47041C2.53357 9.47041 2.66433 9.43925 2.7624 9.3458L3.71045 8.44237L4.33158 9.03427C2.37011 11.2461 1.19323 14.1122 1.19323 17.2274C1.19323 24.2679 7.20841 30 14.5966 30C21.9848 30 28 24.2679 28 17.2274C27.9673 10.6854 22.7694 5.2648 16.1004 4.54829ZM2.4028 8.38006L1.19323 7.19626L3.02393 5.45171L4.23351 6.60436L3.5143 7.28972C3.41623 7.38318 3.28546 7.50779 3.1547 7.6324L2.4028 8.38006ZM13.5505 2.24299H12.2102V0.934579H16.9504V2.24299H15.61C15.3485 2.24299 15.1197 2.46106 15.1197 2.71028V4.48598C14.9562 4.48598 14.7601 4.48598 14.5966 4.48598C14.4332 4.48598 14.237 4.48598 14.0736 4.48598V2.71028C14.0409 2.42991 13.812 2.24299 13.5505 2.24299ZM14.5639 29.0654C7.73147 29.0654 2.14127 23.7695 2.14127 17.2274C2.14127 10.6854 7.69877 5.38941 14.5639 5.38941C14.8255 5.38941 15.087 5.38941 15.3485 5.42056C15.4793 5.42056 15.61 5.45171 15.7408 5.45171C22.0502 6.01246 26.9866 11.0903 26.9866 17.2274C26.9866 23.7695 21.4291 29.0654 14.5639 29.0654Z" fill="#5F4494"/>
<path d="M21.6254 9.56389C21.5927 9.53274 21.56 9.50159 21.5273 9.47043C19.6639 7.94395 17.2447 7.04053 14.5968 7.04053C8.67965 7.04053 3.90674 11.62 3.90674 17.2274C3.90674 22.8349 8.67965 27.4455 14.5641 27.4455C20.4485 27.4455 25.2541 22.8661 25.2541 17.2586C25.2868 14.1745 23.8484 11.4331 21.6254 9.56389ZM14.5641 26.5109C9.20271 26.5109 4.85478 22.3676 4.85478 17.2586C4.85478 12.1496 9.20271 8.00626 14.5641 8.00626C16.8198 8.00626 18.8793 8.75392 20.5139 9.96888L15.2179 15.7633C15.0217 15.701 14.7929 15.6387 14.5968 15.6387C13.6814 15.6387 12.9295 16.3552 12.9295 17.2274C12.9295 18.0997 13.6814 18.8162 14.5968 18.8162C15.5121 18.8162 16.2313 18.0997 16.2313 17.2274C16.2313 16.9159 16.1332 16.6044 15.9698 16.3552L21.2984 10.5296C23.1618 12.2119 24.306 14.5795 24.306 17.2274C24.306 22.3365 19.9254 26.5109 14.5641 26.5109ZM15.2506 17.2274C15.2506 17.6013 14.9564 17.8816 14.5641 17.8816C14.1718 17.8816 13.8775 17.6013 13.8775 17.2274C13.8775 16.8848 14.1718 16.5732 14.5641 16.5732C14.9564 16.5732 15.2506 16.8848 15.2506 17.2274Z" fill="#5F4494"/>
</svg>
