<svg width="27" height="26" viewBox="0 0 27 26" fill="none" xmlns="http://www.w3.org/2000/svg">
<g clip-path="url(#clip0_463_204)">
<path d="M12.5 26.0141C10.5756 26.0127 8.67369 25.6155 6.92165 24.8489C5.16961 24.0824 3.60785 22.9642 2.34091 21.5694C1.07398 20.1745 0.131124 18.5351 -0.42454 16.7609C-0.980205 14.9867 -1.13585 13.1187 -0.881059 11.2819C-0.851521 11.0682 -0.735053 10.8746 -0.557277 10.7436C-0.379501 10.6127 -0.15498 10.5551 0.0668941 10.5835C0.288768 10.612 0.489821 10.7241 0.625823 10.8953C0.761825 11.0665 0.821636 11.2827 0.792097 11.4964C0.722512 11.9995 0.687561 12.5065 0.687472 13.0141C0.685786 15.6287 1.61948 18.164 3.33142 20.1933C5.04336 22.2227 7.42902 23.6222 10.0869 24.1563C12.7448 24.6904 15.5126 24.3265 17.9245 23.1259C20.3364 21.9252 22.2451 19.9611 23.3295 17.5641C23.3734 17.4658 23.4371 17.3768 23.5169 17.3022C23.5967 17.2276 23.691 17.169 23.7944 17.1296C23.8977 17.0902 24.0082 17.0709 24.1193 17.0728C24.2305 17.0747 24.3402 17.0977 24.4421 17.1405C24.544 17.1834 24.6361 17.2451 24.7131 17.3224C24.7901 17.3996 24.8505 17.4907 24.8909 17.5904C24.9312 17.6902 24.9506 17.7967 24.9481 17.9037C24.9456 18.0107 24.9211 18.1162 24.8761 18.2141C23.8245 20.5325 22.0937 22.5052 19.8954 23.8906C17.6972 25.276 15.1271 26.014 12.5 26.0141V26.0141Z" fill="#5E4495"/>
<path d="M25.0458 15.4522C25.008 15.4522 24.9702 15.4497 24.9328 15.4449C24.711 15.4164 24.5101 15.3043 24.3742 15.1332C24.2383 14.9621 24.1785 14.746 24.208 14.5325C24.2776 14.0293 24.3125 13.5223 24.3126 13.0147C24.3143 10.4001 23.3806 7.86484 21.6687 5.83548C19.9567 3.80613 17.5711 2.40663 14.9132 1.87252C12.2553 1.33841 9.48753 1.7023 7.07562 2.90296C4.66371 4.10361 2.75495 6.06771 1.67058 8.46471C1.62665 8.56305 1.56296 8.65207 1.48319 8.72664C1.40342 8.8012 1.30912 8.85985 1.20573 8.89922C1.10235 8.93858 0.991897 8.95788 0.880737 8.95601C0.769577 8.95413 0.659898 8.93112 0.558003 8.8883C0.456108 8.84547 0.364007 8.78368 0.286992 8.70647C0.209977 8.62926 0.149568 8.53815 0.109236 8.43838C0.0689041 8.33862 0.0494448 8.23216 0.0519766 8.12513C0.0545084 8.0181 0.0789814 7.9126 0.123989 7.81471C1.42402 4.93661 3.76145 2.60858 6.70474 1.26042C9.64804 -0.0877432 12.9985 -0.365003 16.1375 0.479823C19.2765 1.32465 21.9921 3.23452 23.783 5.85683C25.5739 8.47915 26.3191 11.6368 25.8811 14.747C25.8542 14.942 25.7546 15.1209 25.601 15.2506C25.4474 15.3803 25.2501 15.452 25.0458 15.4522Z" fill="#5E4495"/>
<path d="M12.5169 4.88916C12.2931 4.89024 12.0781 4.80567 11.9191 4.65406C11.76 4.50245 11.6701 4.29621 11.669 4.08072C11.6678 3.86523 11.7557 3.65814 11.9131 3.50501C12.0705 3.35187 12.2847 3.26524 12.5085 3.26416H12.5169C12.7407 3.26416 12.9553 3.34976 13.1135 3.50214C13.2718 3.65451 13.3607 3.86117 13.3607 4.07666C13.3607 4.29215 13.2718 4.49881 13.1135 4.65118C12.9553 4.80356 12.7407 4.88916 12.5169 4.88916Z" fill="#5E4495"/>
<path d="M19.0814 7.50702C18.9706 7.50755 18.8607 7.48706 18.7582 7.44673C18.6556 7.40639 18.5623 7.34699 18.4835 7.27192C18.3245 7.1203 18.2345 6.91407 18.2334 6.69858C18.2323 6.48309 18.3201 6.276 18.4776 6.12287C18.635 5.96973 18.8492 5.8831 19.0729 5.88202H19.0814C19.3052 5.88202 19.5198 5.96762 19.678 6.11999C19.8362 6.27237 19.9251 6.47903 19.9251 6.69452C19.9251 6.91001 19.8362 7.11667 19.678 7.26904C19.5198 7.42142 19.3052 7.50702 19.0814 7.50702Z" fill="#5E4495"/>
<path d="M21.7982 13.8267C21.5744 13.8277 21.3593 13.7432 21.2003 13.5916C21.0413 13.4399 20.9513 13.2337 20.9502 13.0182C20.9491 12.8027 21.0369 12.5956 21.1944 12.4425C21.3518 12.2894 21.566 12.2027 21.7897 12.2017H21.7982C22.022 12.2017 22.2366 12.2873 22.3948 12.4396C22.553 12.592 22.6419 12.7987 22.6419 13.0142C22.6419 13.2296 22.553 13.4363 22.3948 13.5887C22.2366 13.7411 22.022 13.8267 21.7982 13.8267Z" fill="#5E4495"/>
<path d="M19.0814 20.1462C18.9706 20.1468 18.8607 20.1263 18.7582 20.0859C18.6556 20.0456 18.5623 19.9862 18.4835 19.9111C18.3245 19.7595 18.2345 19.5533 18.2334 19.3378C18.2323 19.1223 18.3201 18.9152 18.4776 18.7621C18.635 18.609 18.8492 18.5223 19.0729 18.5212H19.0814C19.3052 18.5212 19.5198 18.6068 19.678 18.7592C19.8362 18.9116 19.9251 19.1183 19.9251 19.3337C19.9251 19.5492 19.8362 19.7559 19.678 19.9083C19.5198 20.0606 19.3052 20.1462 19.0814 20.1462Z" fill="#5E4495"/>
<path d="M12.5169 22.7642C12.4061 22.7647 12.2963 22.7442 12.1937 22.7039C12.0911 22.6635 11.9978 22.6041 11.9191 22.5291C11.76 22.3774 11.6701 22.1712 11.669 21.9557C11.6678 21.7402 11.7557 21.5331 11.9131 21.38C12.0705 21.2269 12.2847 21.1402 12.5085 21.1392H12.5169C12.7407 21.1392 12.9553 21.2248 13.1135 21.3771C13.2718 21.5295 13.3607 21.7362 13.3607 21.9517C13.3607 22.1671 13.2718 22.3738 13.1135 22.5262C12.9553 22.6786 12.7407 22.7642 12.5169 22.7642Z" fill="#5E4495"/>
<path d="M5.95436 20.1462C5.73058 20.1474 5.51548 20.063 5.35638 19.9114C5.19728 19.7599 5.1072 19.5537 5.10597 19.3382C5.10474 19.1227 5.19245 18.9156 5.34982 18.7624C5.50718 18.6092 5.7213 18.5224 5.94508 18.5212H5.95436C6.17814 18.5212 6.39275 18.6068 6.55098 18.7592C6.70922 18.9116 6.79811 19.1183 6.79811 19.3337C6.79811 19.5492 6.70922 19.7559 6.55098 19.9083C6.39275 20.0606 6.17814 20.1462 5.95436 20.1462Z" fill="#5E4495"/>
<path d="M3.23567 13.8267C3.0119 13.8277 2.79684 13.7432 2.63782 13.5916C2.47879 13.4399 2.38882 13.2337 2.38771 13.0182C2.38659 12.8027 2.47441 12.5956 2.63185 12.4425C2.78929 12.2894 3.00346 12.2027 3.22724 12.2017H3.23567C3.45945 12.2017 3.67406 12.2873 3.8323 12.4396C3.99053 12.592 4.07943 12.7987 4.07943 13.0142C4.07943 13.2296 3.99053 13.4363 3.8323 13.5887C3.67406 13.7411 3.45945 13.8267 3.23567 13.8267Z" fill="#5E4495"/>
<path d="M5.95436 7.50702C5.73058 7.5082 5.51548 7.42374 5.35638 7.2722C5.19728 7.12067 5.1072 6.91448 5.10597 6.69899C5.10474 6.4835 5.19245 6.27637 5.34982 6.12315C5.50718 5.96994 5.7213 5.8832 5.94508 5.88202H5.95436C6.17814 5.88202 6.39275 5.96762 6.55098 6.11999C6.70922 6.27237 6.79811 6.47903 6.79811 6.69452C6.79811 6.91001 6.70922 7.11667 6.55098 7.26904C6.39275 7.42142 6.17814 7.50702 5.95436 7.50702Z" fill="#5E4495"/>
<path d="M9.96857 16.2642C9.80172 16.2641 9.63862 16.2165 9.4999 16.1272C9.36118 16.0379 9.25306 15.911 9.18922 15.7626C9.12537 15.6141 9.10866 15.4508 9.1412 15.2932C9.17374 15.1356 9.25407 14.9909 9.37204 14.8772L11.6561 12.6778V7.32666C11.6561 7.11117 11.745 6.90451 11.9032 6.75214C12.0614 6.59976 12.276 6.51416 12.4998 6.51416C12.7236 6.51416 12.9382 6.59976 13.0964 6.75214C13.2547 6.90451 13.3436 7.11117 13.3436 7.32666V13.0142C13.3435 13.2296 13.2546 13.4363 13.0964 13.5886L10.5651 16.0261C10.4069 16.1785 10.1923 16.2641 9.96857 16.2642Z" fill="#5E4495"/>
</g>
<defs>
<clipPath id="clip0_463_204">
<rect width="27" height="26" fill="white"/>
</clipPath>
</defs>
</svg>
